<svg width="1440" height="809" viewBox="0 0 1440 809" fill="none" xmlns="http://www.w3.org/2000/svg">
<path d="M634.072 768.502C342.974 649.688 68.7331 726.516 -32 779.782V-85H1516V676.384C1487.9 707.09 1388.13 751.958 1213.8 685.784C995.888 603.065 997.944 917.019 634.072 768.502Z" fill="#0C1098"/>
<path fillRule="evenodd" clip-rule="evenodd" d="M1516 41.3558V625.325C1497.73 655.473 1476.72 683.966 1453.29 710.503C1401.86 725.143 1322.26 726.953 1213.8 685.784C1119.42 649.956 1066.3 688.544 1006.84 731.738C929.021 788.27 840.341 852.692 634.072 768.502C588.025 749.708 542.4 735.809 497.817 725.937C399.014 621.526 339 484.016 339 333.34C339 169.935 409.583 22.0126 523.677 -85L1413.32 -85C1453.27 -47.5326 1487.88 -5.05019 1516 41.3558Z" fill="#1318B3"/>
</svg>
