<svg width="161" height="63" viewBox="0 0 161 63" fill="none" xmlns="http://www.w3.org/2000/svg">
<g clip-path="url(#clip0)">
<path d="M82.0669 17.9085H73.3617C71.1776 14.7232 68.2562 12.119 64.8488 10.32C61.4414 8.521 57.6501 7.58105 53.8012 7.58105C49.9522 7.58105 46.1609 8.521 42.7535 10.32C39.3462 12.119 36.4247 14.7232 34.2406 17.9085H25.5369C28.0865 12.5469 32.0938 8.01986 37.0956 4.85079C42.0973 1.68173 47.8892 0 53.8019 0C59.7145 0 65.5064 1.68173 70.5082 4.85079C75.5099 8.01986 79.5172 12.5469 82.0669 17.9085Z" fill="white"/>
<path d="M81.6604 45.9087C79.0286 51.056 75.0359 55.3745 70.1212 58.3897C65.2065 61.405 59.5599 63.0002 53.8019 63.0002C48.0439 63.0002 42.3973 61.405 37.4826 58.3897C32.5678 55.3745 28.5752 51.056 25.9434 45.9087H34.8219C37.037 48.8621 39.9042 51.2582 43.1976 52.9082C46.491 54.5582 50.1206 55.417 53.8005 55.417C57.4804 55.417 61.11 54.5582 64.4034 52.9082C67.6968 51.2582 70.564 48.8621 72.7791 45.9087H81.6604Z" fill="white"/>
<path d="M23.1564 33.5411C23.273 33.5411 23.3881 33.5997 23.4464 33.5411H23.5047L23.7363 33.4826L23.4464 33.3069L23.0982 33.424C22.983 33.484 23.0413 33.484 23.1564 33.5411Z" fill="white"/>
<path d="M17.18 28.9344C17.2383 28.9344 17.2383 28.9344 17.2965 28.8759L17.4131 28.7588C17.4131 28.7002 17.2965 28.7002 17.1231 28.7588L15.6707 29.2844L15.9023 29.4015L17.18 28.9344Z" fill="white"/>
<path d="M25.5368 32.667C25.581 32.6609 25.622 32.6403 25.6534 32.6084C25.7699 32.5499 25.8282 32.4913 25.8282 32.4328C25.7703 32.3905 25.703 32.3631 25.6321 32.3529C25.5613 32.3427 25.4891 32.35 25.4217 32.3742L23.6807 32.8998L24.1454 33.0755L25.5368 32.667Z" fill="white"/>
<path d="M18.688 29.5758C18.7462 29.5758 18.7462 29.5758 18.8045 29.5172C18.921 29.4586 18.9793 29.4001 18.921 29.3415C18.921 29.283 18.8045 29.283 18.6311 29.3415L17.0635 29.8672L17.3534 29.9843L18.688 29.5758Z" fill="white"/>
<path d="M15.5554 29.8671H15.8454L16.3684 29.7499L16.1936 29.6328L15.5554 29.7499C15.4389 29.8671 15.4389 29.8671 15.5554 29.8671Z" fill="white"/>
<path d="M14.5679 29.4015H14.7995L15.3225 29.2844L15.1477 29.2258L14.5679 29.4015C14.4513 29.4015 14.4513 29.343 14.5679 29.4015Z" fill="white"/>
<path d="M16.8846 30.5099H17.1745L17.6393 30.3928L17.4118 30.3342L16.8319 30.4513C16.7736 30.5099 16.7736 30.5099 16.8846 30.5099Z" fill="white"/>
<path d="M3.88843 22.4006L4.17837 22.5178L6.67546 21.4093L6.85026 21.2336L6.61581 21.175L3.88843 22.4006Z" fill="white"/>
<path d="M4.00504 20.8837L3.94678 21.0008L4.52666 20.7094L4.29498 20.6509L4.00504 20.8837Z" fill="white"/>
<path d="M4.23682 22.5165L4.46849 22.6336L5.91958 21.9922L6.49946 21.5251L4.23682 22.5165Z" fill="white"/>
<path d="M6.15259 21.875L7.372 21.3493L6.96553 21.2908L6.15259 21.875Z" fill="white"/>
<path d="M5.39795 21.6993L6.5591 21.1736L6.15263 21.1165L5.39795 21.6993Z" fill="white"/>
<path d="M4.75977 21.468L5.80438 21.0009L5.4534 20.9424L4.75977 21.468Z" fill="white"/>
<path d="M4.17847 21.2923L5.16482 20.8837L4.81661 20.7666L4.17847 21.2923Z" fill="white"/>
<path d="M5.28125 22.9251L5.62945 23.1007L8.47336 21.8751L8.70504 21.6995L8.35683 21.5837L5.28125 22.9251Z" fill="white"/>
<path d="M8.82311 21.7007L8.01017 22.3978H7.9519L9.33918 21.815L9.1075 21.7565L8.82311 21.7007Z" fill="white"/>
<path d="M7.37053 22.7506V22.6921L6.09424 23.2749L6.26904 23.3334L6.50071 23.4506L9.46115 22.225L9.51942 21.875H9.46115L7.37053 22.7506Z" fill="white"/>
<path d="M4.93311 22.8091L5.16478 22.9262L6.78928 22.2291L7.36916 21.762L4.93311 22.8091Z" fill="white"/>
<path d="M7.02246 22.1638L8.29875 21.581L7.83402 21.4639L7.02246 22.1638Z" fill="white"/>
<path d="M4.52661 22.635L4.87482 22.8107L7.48705 21.6437L7.71873 21.468L7.42879 21.4094L4.52661 22.635Z" fill="white"/>
<path d="M3.94669 20.9994L3.88843 21.2323L4.58206 20.9409L4.75686 20.7652L4.58206 20.708L3.94669 20.9994Z" fill="white"/>
<path d="M4.46831 21.0007L3.88843 21.2336V21.4093H3.94669L4.46831 21.0007Z" fill="white"/>
<path d="M3.88859 21.4666L3.83032 21.6995L5.2176 21.0581L5.39239 20.941L5.16488 20.8838L3.88859 21.4666Z" fill="white"/>
<path d="M3.83162 22.4007L5.21889 21.7594L5.74189 21.3508L3.71509 22.2265V22.3436L3.83162 22.4007Z" fill="white"/>
<path d="M5.10653 21.175L3.83024 21.7007L3.77197 21.9336L4.52665 21.5836L5.10653 21.175Z" fill="white"/>
<path d="M3.77197 21.9335V22.1664L5.91947 21.2336L6.09427 21.0579L5.86121 21.0007L3.77197 21.9335Z" fill="white"/>
<path d="M9.69292 20.1251L9.80945 20.008L9.86356 19.7751L9.16992 20.0666L9.69292 20.1251Z" fill="white"/>
<path d="M6.73242 19.7752H7.08063L7.8353 19.3081L6.73242 19.7752Z" fill="white"/>
<path d="M5.51318 19.6009H5.68798L5.80451 19.6595L6.44266 19.1924L5.51318 19.6009Z" fill="white"/>
<path d="M7.48706 19.8338L7.83527 19.8923L8.64821 19.3667L7.48706 19.8338Z" fill="white"/>
<path d="M8.70652 20.0095L9.51946 19.4839L8.30005 19.951L8.70652 20.0095Z" fill="white"/>
<path d="M6.09424 19.6595L6.38418 19.7181L7.07781 19.251L6.09424 19.6595Z" fill="white"/>
<path d="M4.58495 18.4338L4.35327 18.551V18.6681L4.75974 18.4352H4.58495V18.4338Z" fill="white"/>
<path d="M4.23682 19.308V19.4252L4.8167 19.0752L4.23682 19.308Z" fill="white"/>
<path d="M4.46851 19.4837H4.70018L5.28006 19.0752L4.46851 19.4837Z" fill="white"/>
<path d="M4.93311 19.5423H5.22305L5.86119 19.1338L4.93311 19.5423Z" fill="white"/>
<path d="M7.89355 19.6581L8.76476 19.3081L9.75111 18.6667L9.40291 18.6082L7.89355 19.6581Z" fill="white"/>
<path d="M7.9519 19.8923L8.24185 19.9509L8.53179 19.8338L10.0411 18.7839V18.6667H9.80946L7.9519 19.8923Z" fill="white"/>
<path d="M7.13892 19.8337H7.42886L7.7188 19.7166L9.34468 18.6082H8.94237L7.13892 19.8337Z" fill="white"/>
<path d="M7.13892 19.5409L7.95186 19.191L8.87994 18.6082H8.59L7.13892 19.5409Z" fill="white"/>
<path d="M6.44263 19.7166L6.6743 19.7752L6.96424 19.6581L8.53186 18.6082H8.18365L6.44263 19.7166Z" fill="white"/>
<path d="M6.50073 19.4837L7.25541 19.1338L8.12662 18.6081L7.83668 18.5496L6.50073 19.4837Z" fill="white"/>
<path d="M9.80949 20.1252V20.0667L9.75122 20.1252H9.80949Z" fill="white"/>
<path d="M9.69151 19.368L9.98145 19.1352L10.0397 18.8438L8.76343 19.7194L9.69151 19.368Z" fill="white"/>
<path d="M4.41162 18.4338V18.551L4.52815 18.4338H4.41162Z" fill="white"/>
<path d="M9.11163 20.068L9.45984 19.9509L9.92458 19.6009L9.98284 19.1924L8.76343 20.0094L9.11163 20.068Z" fill="white"/>
<path d="M9.86767 19.7751V19.658L9.69287 19.8336L9.86767 19.7751Z" fill="white"/>
<path d="M6.84764 18.551L5.22314 19.5424L5.45482 19.6009L5.68649 19.4838L7.13758 18.551H6.84764Z" fill="white"/>
<path d="M5.51434 18.4924L4.29492 19.2509L4.93307 18.9595L5.68219 18.4924H5.51434Z" fill="white"/>
<path d="M5.74617 18.4924L4.23682 19.4251L4.41161 19.4837L4.64329 19.3666L5.97784 18.491H5.74617V18.4924Z" fill="white"/>
<path d="M5.22317 18.4924L4.29508 19.0752L4.23682 19.2509L5.45623 18.4924H5.22317Z" fill="white"/>
<path d="M6.03606 18.4924L4.75977 19.3095L5.4534 19.0181L6.20808 18.4924H6.03606Z" fill="white"/>
<path d="M4.98856 18.4338L4.29492 18.9009V19.018L4.46972 18.9595L5.22439 18.4924L4.98856 18.4338Z" fill="white"/>
<path d="M4.75974 18.4338L4.35327 18.7252V18.8424L4.99142 18.4338H4.75974Z" fill="white"/>
<path d="M6.26903 18.4924L4.70142 19.4838L4.87621 19.5423L5.10789 19.4252L6.49516 18.4924H6.26903Z" fill="white"/>
<path d="M6.55754 18.4924L5.28125 19.368L5.97489 19.0766L6.78783 18.551L6.55754 18.4924Z" fill="white"/>
<path d="M11.7183 22.5164H10.9692L10.3311 23.0992L11.7183 22.5164Z" fill="white"/>
<path d="M19.0375 25.0247L18.9792 24.4419L18.1663 25.3747L19.0375 25.0247Z" fill="white"/>
<path d="M13.5232 24.0333L15.4959 23.2748L14.5095 23.042L13.5232 24.0333Z" fill="white"/>
<path d="M42.1357 30.8C41.9697 31.5859 41.892 32.3879 41.904 33.1912V33.5412L48.753 31.8541L48.8113 30.9785L44.8062 30.0415L42.1357 30.8Z" fill="white"/>
<path d="M36.7959 34.7097L37.2607 32.0842L31.8628 33.4785L35.6348 34.9955L36.7959 34.7097Z" fill="white"/>
<path d="M16.6569 23.5093L15.6123 24.6177L17.8181 23.8007L16.6569 23.5093Z" fill="white"/>
<path d="M36.7391 35.2339L36.3909 35.2924L36.6808 35.4096L36.7391 35.2339Z" fill="white"/>
<path d="M41.9622 34.0083C42.006 34.8097 42.1828 35.5981 42.4852 36.341L47.8248 35.1154C47.7665 35.0568 47.7665 34.9983 47.7082 34.9397C47.4722 34.5138 47.3521 34.0329 47.36 33.5454C47.3509 33.4257 47.3709 33.3056 47.4183 33.1954H48.6946L48.7529 32.3198L41.9622 34.0083Z" fill="white"/>
<path d="M49.9709 33.2498H56.1235L57.2847 32.9584L50.0292 31.2671L49.9709 33.2498Z" fill="white"/>
<path d="M42.2522 30.2758L43.8767 29.8087L42.4894 29.4587C42.3969 29.727 42.3178 29.9997 42.2522 30.2758Z" fill="white"/>
<path d="M32.3275 27.1831L32.0376 28.7587L35.1132 27.8259L32.3275 27.1831Z" fill="white"/>
<path d="M26.4665 25.8418L25.4219 27.4745L28.8457 26.3661L26.4665 25.8418Z" fill="white"/>
<path d="M12.7683 22.6335L11.782 23.5092L13.5854 22.812L12.7683 22.6335Z" fill="white"/>
<path d="M5.68774 23.1007L5.91942 23.2178L6.03595 23.2763L7.71871 22.5178L8.35686 21.9922L5.68774 23.1007Z" fill="white"/>
<path d="M6.96539 23.6248L8.76884 22.8663L9.46248 22.2834L6.5603 23.4505L6.96539 23.6248Z" fill="white"/>
<path d="M51.5968 41.359C52.9272 41.3012 54.2393 41.0252 55.4812 40.542C56.881 39.9766 58.1468 39.1215 59.1963 38.0322L48.3464 40.0163L51.5968 41.359Z" fill="white"/>
<path d="M9.05469 22.7506L9.57769 22.5178H9.40289V22.4592L9.05469 22.7506Z" fill="white"/>
<path d="M9.40308 24.5577L10.0412 24.8491L14.0463 23.2736L14.3362 22.9822L13.7036 22.8665L9.40308 24.5577Z" fill="white"/>
<path d="M10.7374 22.5164H9.75106L7.02368 23.6248L7.48842 23.8577L10.7374 22.5164Z" fill="white"/>
<path d="M8.01008 24.0278L9.98278 23.2107L10.6764 22.6279L7.60083 23.8535L8.01008 24.0278Z" fill="white"/>
<path d="M12.3037 22.8078L12.5937 22.5749L12.3037 22.5164H11.8972L8.12524 24.0919L8.64825 24.3248L12.3037 22.8078Z" fill="white"/>
<path d="M13.1167 24.2092L13.8714 23.4507L10.1562 24.9091L10.7361 25.142L13.1167 24.2092Z" fill="white"/>
<path d="M10.8525 25.2004L11.6072 25.4918L12.8266 25.0247L16.1353 23.7991L16.4252 23.4491L15.6705 23.2734L10.8525 25.2004Z" fill="white"/>
<path d="M58.7939 37.3336L55.7169 34.9424C55.1574 35.508 54.5104 35.9789 53.8011 36.3367C53.0407 36.7011 52.2059 36.8811 51.3637 36.8623C50.8511 36.8708 50.3408 36.7921 49.8543 36.6295C49.3969 36.4871 48.9658 36.2705 48.578 35.9881L48.2298 35.6381L42.7168 36.8637C42.9339 37.2927 43.1863 37.7027 43.4715 38.0893L47.1283 39.5477L58.7939 37.3336Z" fill="white"/>
<path d="M15.9606 23.9749L12.885 25.1419L13.0015 25.609L15.149 24.7919L15.9606 23.9749Z" fill="white"/>
<path d="M12.4758 25.8391L12.6506 25.722L12.7671 25.1392L11.7808 25.5477L12.4758 25.8391Z" fill="white"/>
<path d="M19.5592 28.233L19.3844 27.1831L17.5269 27.8245L18.9779 28.4073L19.5592 28.233Z" fill="white"/>
<path d="M26.06 25.7248L25.1319 25.4919L24.6089 26.5418L25.77 26.1333L26.06 25.7248Z" fill="white"/>
<path d="M19.5592 28.4087L19.2693 28.5258L19.6175 28.6429L19.5592 28.4087Z" fill="white"/>
<path d="M25.5953 26.4246L24.4341 26.8331L23.8542 28.0001L24.7823 27.7087L25.5953 26.4246Z" fill="white"/>
<path d="M29.8318 27.8245L30.4117 26.716L29.3088 26.4832L23.6792 28.2957L22.8677 29.9243L29.8318 27.8245Z" fill="white"/>
<path d="M31.283 33.2512L37.3772 31.6184L37.4355 31.3856C37.5075 30.9402 37.6445 30.508 37.842 30.1028C37.9002 29.9272 37.9585 29.8114 38.0168 29.6357L31.6353 31.3856L31.283 33.2512Z" fill="white"/>
<path d="M25.132 30.8012L28.7306 29.7513L29.6559 28.1758L23.2744 30.1013L25.132 30.8012Z" fill="white"/>
<path d="M28.5556 30.1001L25.5369 30.9757L27.5678 31.7928L28.5556 30.1001Z" fill="white"/>
<path d="M38.422 28.583L35.6947 27.9417L31.9796 29.0501L31.6313 31.0328L38.1904 29.2202L38.422 28.583Z" fill="white"/>
<path d="M18.6298 24.3848L18.9197 24.0934V24.0348L18.0499 23.8591L13.0002 25.7261L13.1168 26.0761L13.5815 26.2517L18.6298 24.3848Z" fill="white"/>
<path d="M14.6261 26.6589L17.6448 25.5505L18.4577 24.6177L13.7549 26.309L14.6261 26.6589Z" fill="white"/>
<path d="M19.2108 26.0761L19.0999 25.2004L14.7993 26.7174L15.9605 27.1845L19.2108 26.0761Z" fill="white"/>
<path d="M17.2953 27.7087L19.3845 27.0115L19.268 26.2502L16.1924 27.3001L17.2953 27.7087Z" fill="white"/>
<path d="M9.28651 24.5591L11.434 23.6835L12.1887 22.9863L8.76489 24.3276L9.28651 24.5591Z" fill="white"/>
<path d="M60.4199 26.6004C60.4199 26.5418 60.3616 26.4833 60.3616 26.4247C60.3616 26.3661 60.3033 26.3076 60.3033 26.249L59.2004 26.4819L60.4199 26.6004Z" fill="white"/>
<path d="M34.532 23.2749L35.2256 22.5164H33.3139L32.9657 22.5749C32.9657 22.7506 32.9075 22.8663 32.9075 23.042L34.532 23.2749Z" fill="white"/>
<path d="M32.5607 23.0421L32.7355 22.6921L31.8074 22.925L32.5607 23.0421Z" fill="white"/>
<path d="M41.7306 24.2091L43.1179 22.4592L40.0423 23.2177C39.7766 23.4341 39.5245 23.667 39.2876 23.9149L41.7306 24.2091Z" fill="white"/>
<path d="M38.4801 23.8007V23.625L38.0154 23.7421L38.4801 23.8007Z" fill="white"/>
<path d="M53.2214 23.3921L46.6055 24.8505L51.8868 25.4919L53.2214 23.3921Z" fill="white"/>
<path d="M29.252 22.5164H28.4973L29.1909 22.6335L29.252 22.5164Z" fill="white"/>
<path d="M43.4716 22.0508H43.4133C42.4345 22.0523 41.4734 22.3139 40.6277 22.8093L43.4133 22.1121L43.4716 22.0508Z" fill="white"/>
<path d="M45.5608 24.6747H45.6191L47.2435 24.3247L48.1148 22.9834C47.2001 23.444 46.3428 24.0117 45.5608 24.6747Z" fill="white"/>
<path d="M44.2305 24.5006L44.6369 22.1679C44.5204 22.1093 44.347 22.1093 44.1722 22.0508L42.427 24.2677L44.2305 24.5006Z" fill="white"/>
<path d="M37.3758 23.6248L38.537 23.3334C38.5281 23.2327 38.5483 23.1315 38.5952 23.042C38.5952 22.8092 38.6535 22.6335 38.6535 22.5164H35.8679L35.0549 23.3334L37.3758 23.6248Z" fill="white"/>
<path d="M31.2829 22.8663L32.3275 22.5749L32.3857 22.5164H29.7166L29.6001 22.6335L31.2829 22.8663Z" fill="white"/>
<path d="M53.4545 22.9835L54.0343 22.0507C53.6688 22.0021 53.3 21.9825 52.9315 21.9921C51.7314 21.9823 50.5371 22.1596 49.3911 22.5178L48.4048 24.0933L53.4545 22.9835Z" fill="white"/>
<path d="M57.6897 26.2504L59.8954 25.8419L59.9537 25.6662C59.6138 25.0422 59.1836 24.4722 58.6774 23.9749C57.9475 23.2999 57.074 22.8011 56.1234 22.5165C55.7258 22.3853 55.3179 22.2878 54.904 22.2251L52.873 25.6662L57.6897 26.2504Z" fill="white"/>
<path d="M4.06323 20.4752L8.99638 21.5836L9.34458 21.6422L9.51938 21.7008L9.63591 21.1179L4.64173 20.1852L4.1215 20.0667L4.06323 20.4752Z" fill="white"/>
<path d="M60.8833 30.5657L55.7185 29.6329V29.6915H47.8249C47.9495 29.2633 48.1251 28.8518 48.3479 28.4659C48.4062 28.4073 48.4062 28.3488 48.4644 28.2902L43.4147 27.3574H43.473L42.7794 28.7517C42.7211 28.8688 42.7211 28.9274 42.6628 29.0431L60.5392 33.0099C60.6689 32.4721 60.7658 31.9269 60.8292 31.3772C60.825 31.0928 60.8833 30.7999 60.8833 30.5657Z" fill="white"/>
<path d="M31.3414 25.142L25.8269 24.092L25.2471 25.2005L30.645 26.3675L31.3414 25.142Z" fill="white"/>
<path d="M13.2915 22.5164L18.8628 23.7419L18.688 22.7506L17.3534 22.5178L13.2915 22.5164Z" fill="white"/>
<path d="M43.1235 27.3003L32.6177 25.3748C32.5594 25.7247 32.5011 26.0719 32.4429 26.3075L32.386 26.7691L39.1184 28.2861C39.4057 28.0583 39.7169 27.8629 40.0465 27.7032C40.7156 27.3793 41.4515 27.2192 42.194 27.2361C42.4267 27.2269 42.6597 27.2465 42.8876 27.2947C43.007 27.2417 43.068 27.3003 43.1235 27.3003Z" fill="white"/>
<path d="M10.0979 18.084H9.69143L9.28496 18.3168H9.22669C9.16843 18.3168 9.16843 18.3754 9.11016 18.3754L9.57629 18.084H9.28635L8.87987 18.3754H8.82716C8.76889 18.3754 8.76889 18.434 8.71063 18.434L9.17536 18.1425H8.82716L8.42069 18.434H8.36242C8.30416 18.434 8.30416 18.4925 8.24589 18.4925L8.71063 18.2011H8.41098L8.00451 18.434H7.94624C7.88797 18.434 7.88797 18.4925 7.82971 18.4925L8.29445 18.2011H7.94624L7.53977 18.434H7.48705C7.47935 18.4338 7.47169 18.4351 7.46453 18.438C7.45738 18.4409 7.45088 18.4452 7.44543 18.4507C7.43998 18.4562 7.4357 18.4627 7.43283 18.4699C7.42997 18.4771 7.4286 18.4848 7.42879 18.4925L7.89352 18.2011H7.66185L7.25538 18.434C7.24767 18.4338 7.24001 18.4351 7.23286 18.438C7.2257 18.4409 7.2192 18.4452 7.21375 18.4507C7.2083 18.4562 7.20402 18.4627 7.20116 18.4699C7.1983 18.4771 7.19692 18.4848 7.19711 18.4925L7.66185 18.2011H7.37052L6.96405 18.434L6.90579 18.4925L7.37052 18.2011H7.13885L6.73238 18.434L6.67411 18.4925L7.08058 18.2011H6.79064L6.44244 18.434C6.43473 18.4338 6.42707 18.4351 6.41992 18.438C6.41276 18.4409 6.40626 18.4452 6.40081 18.4507C6.39536 18.4562 6.39108 18.4627 6.38822 18.4699C6.38536 18.4771 6.38398 18.4848 6.38417 18.4925L6.79064 18.2011H6.55758L6.20937 18.434C6.20167 18.4338 6.19401 18.4351 6.18685 18.438C6.1797 18.4409 6.1732 18.4452 6.16775 18.4507C6.1623 18.4562 6.15802 18.4627 6.15516 18.4699C6.1523 18.4771 6.15092 18.4848 6.15111 18.4925L6.55758 18.2597H6.33007L5.98186 18.4925C5.97416 18.4923 5.9665 18.4937 5.95934 18.4966C5.95219 18.4995 5.94569 18.5038 5.94024 18.5092C5.93479 18.5147 5.9305 18.5212 5.92764 18.5284C5.92478 18.5356 5.92341 18.5433 5.9236 18.5511L6.33007 18.3182H6.15111L5.8029 18.2597C5.7952 18.2595 5.78754 18.2609 5.78038 18.2637C5.77323 18.2666 5.76673 18.2709 5.76128 18.2764C5.75583 18.2819 5.75155 18.2884 5.74868 18.2956C5.74582 18.3028 5.74445 18.3105 5.74464 18.3182L6.15111 18.084H5.91388L5.56568 18.3168C5.55798 18.3166 5.55031 18.318 5.54316 18.3209C5.536 18.3238 5.5295 18.3281 5.52406 18.3336C5.51861 18.339 5.51432 18.3456 5.51146 18.3528C5.5086 18.3599 5.50722 18.3676 5.50741 18.3754L5.91388 18.1425H5.74602L5.39782 18.3754C5.39012 18.3752 5.38245 18.3766 5.3753 18.3795C5.36814 18.3823 5.36164 18.3866 5.35619 18.3921C5.35075 18.3976 5.34646 18.4041 5.3436 18.4113C5.34074 18.4185 5.33936 18.4262 5.33955 18.434L5.74602 18.2011H5.51296L5.16476 18.434C5.15705 18.4338 5.14939 18.4351 5.14224 18.438C5.13508 18.4409 5.12858 18.4452 5.12313 18.4507C5.11768 18.4562 5.1134 18.4627 5.11054 18.4699C5.10768 18.4771 5.1063 18.4848 5.10649 18.4925L5.51296 18.2597H5.33955L4.99135 18.4353C4.98364 18.4352 4.97598 18.4365 4.96883 18.4394C4.96167 18.4423 4.95517 18.4466 4.94972 18.4521C4.94427 18.4576 4.93999 18.4641 4.93713 18.4713C4.93427 18.4785 4.93289 18.4862 4.93308 18.4939L5.28129 18.2611H5.04961L4.70141 18.4367C4.6937 18.4366 4.68604 18.4379 4.67889 18.4408C4.67173 18.4437 4.66523 18.448 4.65978 18.4535C4.65434 18.4589 4.65005 18.4655 4.64719 18.4727C4.64433 18.4799 4.64295 18.4876 4.64314 18.4953L4.99135 18.2625H4.81655L4.52661 18.4381V18.5553L7.89352 18.6724L10.2144 18.7309L10.2727 18.5553C10.2144 18.5553 10.2144 18.6138 10.1562 18.6138L10.2727 18.5553L10.331 18.3224L9.92449 18.6138H9.86623C9.80796 18.6138 9.80796 18.6724 9.74969 18.6724L10.0979 18.084Z" fill="white"/>
<path d="M4.46851 18.084V18.2011L4.70018 18.0254H4.52677L4.46851 18.084Z" fill="white"/>
<path d="M43.9932 26.4776L49.2162 27.3532L49.2745 27.2946C49.6922 26.9366 50.1595 26.6416 50.6618 26.419C51.2311 26.174 51.8461 26.0546 52.4652 26.069H52.8717L45.1543 25.0833C45.096 25.1418 45.0378 25.1418 45.0378 25.2004C44.6421 25.5845 44.2916 26.0131 43.9932 26.4776Z" fill="white"/>
<path d="M31.7477 24.4419L32.3859 23.3334L26.5829 22.575L26.1182 23.5077L31.7477 24.4419Z" fill="white"/>
<path d="M9.69142 20.7678L9.80796 20.3007L5.50741 19.7179L4.23112 19.5422L4.17285 19.8922L4.92753 20.0093L9.69142 20.7678Z" fill="white"/>
<path d="M54.9054 26.8918C55.34 27.29 55.6267 27.825 55.7184 28.4088L60.9415 29.2844C60.9346 28.5556 60.8372 27.8306 60.6515 27.126L53.4543 26.1333C53.9867 26.2784 54.4816 26.5371 54.9054 26.8918Z" fill="white"/>
<path d="M32.7922 24.5006V24.6177L43.8779 26.4846L44.1679 24.9676L39.0599 24.2705C38.8283 24.5619 38.5952 24.9119 38.3663 25.2033H38.308C38.3237 24.9859 38.3627 24.7708 38.4246 24.5619C38.4246 24.4448 38.4828 24.2705 38.4828 24.1534L33.0239 23.3921C32.919 23.7552 32.8416 24.1257 32.7922 24.5006Z" fill="white"/>
<path d="M2.84403 22.5164H2.3793L2.08936 22.6335L2.32103 22.7506L2.84403 22.5164Z" fill="white"/>
<path d="M13.2916 26.9502H13.3498C13.35 26.958 13.3487 26.9657 13.3458 26.9729C13.3429 26.9801 13.3386 26.9866 13.3332 26.9921C13.3278 26.9976 13.3213 27.0019 13.3141 27.0047C13.3069 27.0076 13.2993 27.009 13.2916 27.0088L13.4664 27.8259L14.3945 27.4759C14.511 27.4173 14.6261 27.4173 14.6261 27.4759C14.6261 27.5345 14.5679 27.5345 14.5096 27.593C14.5019 27.5928 14.4942 27.5942 14.4871 27.5971C14.4799 27.6 14.4734 27.6043 14.468 27.6097C14.4625 27.6152 14.4582 27.6217 14.4554 27.6289C14.4525 27.6361 14.4511 27.6438 14.4513 27.6516L13.5233 28.0015L13.5815 28.3515L14.0463 28.5844L15.4973 28.0587C15.6139 28.0001 15.729 28.0001 15.729 28.0587C15.729 28.1173 15.6708 28.1173 15.6125 28.1758C15.5677 28.1801 15.5262 28.201 15.496 28.2344L14.1087 28.76H14.1669L14.3417 28.7015L15.3281 29.1686L15.0964 29.2271L15.2712 29.2857L15.5029 29.2271L15.5612 29.2857L17.0705 28.76C17.1133 28.731 17.1638 28.7155 17.2155 28.7155C17.2671 28.7155 17.3176 28.731 17.3604 28.76C17.3585 28.7905 17.3456 28.8191 17.3241 28.8407C17.3027 28.8622 17.2742 28.8752 17.2439 28.8772C17.1857 28.8772 17.1857 28.9357 17.1274 28.9357L15.8511 29.4028L16.3741 29.6357L16.0842 29.6942L16.259 29.8113L16.5489 29.7528L17.0136 29.9856L18.5812 29.46C18.756 29.4014 18.8712 29.4014 18.8712 29.46C18.8712 29.5185 18.8129 29.5771 18.7547 29.6357C18.6964 29.6357 18.6964 29.6942 18.6381 29.6942L17.3036 30.1613L17.7683 30.337H17.4201L17.5949 30.4541L18.0014 30.337L18.9877 30.8041L18.5812 30.9212L18.6978 30.9798L19.9172 30.5712L19.6855 29.1769L13.175 26.4832L13.2916 26.9502Z" fill="white"/>
<path d="M2.3224 22.5164H1.91593L1.85767 22.5749L2.03246 22.6335L2.3224 22.5164Z" fill="white"/>
<path d="M19.9642 30.8L19.3843 30.9757L20.0224 31.2671L19.9642 30.8Z" fill="white"/>
<path d="M22.2282 31.267L22.6346 31.1499C22.8094 31.0913 22.9828 31.0913 22.9828 31.1499C22.9828 31.2085 22.9246 31.267 22.8663 31.3256C22.808 31.3256 22.808 31.3841 22.7498 31.3841L22.0561 31.617L21.8245 32.0841L22.1727 32.2598L21.7079 32.3769L21.6497 32.4354L21.8245 32.5526L22.4626 32.3769L23.682 32.9025L25.423 32.3769C25.5978 32.3183 25.8295 32.3183 25.8295 32.4354C25.8878 32.494 25.7712 32.5526 25.6547 32.6111C25.5965 32.6111 25.5965 32.6697 25.5382 32.6697L24.0871 33.1368L24.2036 33.1953L23.51 33.371L23.7999 33.5467L24.4936 33.3138L26.0029 34.011L25.19 34.2438L25.4217 34.361L26.3497 34.0696L27.3361 32.257L22.6929 30.3342L22.2282 31.267Z" fill="white"/>
<path d="M6.03616 23.4491L5.68795 23.332L3.6556 22.5164H2.96196L2.38208 22.7492L2.55688 22.8663L3.19502 22.5749C3.25329 22.5749 3.25329 22.5164 3.25329 22.5749L3.19502 22.6335H3.13398L2.5541 22.9249L2.78578 23.042L3.54045 22.7506C3.59872 22.7506 3.65698 22.692 3.59872 22.7506L3.54045 22.8092H3.48219L2.90231 23.1006L3.13398 23.2177L3.82762 22.9263C3.88588 22.9263 3.94415 22.8677 3.88588 22.9263L3.82762 22.9848H3.76658L3.12843 23.2763L3.41837 23.3348L4.17305 22.9848C4.23132 22.9848 4.28958 22.9263 4.23131 22.9848L4.17305 23.0434H4.12033L3.48219 23.3348L3.71386 23.4519L4.46854 23.102C4.5268 23.102 4.58507 23.0434 4.58507 23.102L4.5268 23.1605H4.46854L3.83039 23.4519L4.1786 23.6276L4.87223 23.3362C4.9305 23.3362 4.98877 23.2776 4.98877 23.3362L4.9305 23.3948H4.8764L4.18276 23.6862L4.4727 23.8033L5.22738 23.5119C5.28564 23.5119 5.34391 23.4533 5.34391 23.5119L5.28564 23.5704H5.22322L4.52958 23.8619L4.64611 23.9204L4.87778 24.0375L5.69073 23.6876C5.74899 23.6876 5.80726 23.629 5.80726 23.6876C5.77589 23.7195 5.73493 23.74 5.69073 23.7461H5.62969L4.87501 24.0375L5.22322 24.2704L6.09442 23.9204C6.15269 23.8619 6.21095 23.8619 6.21095 23.9204C6.17959 23.9523 6.13862 23.9729 6.09442 23.979H6.03616L5.28148 24.329L5.74622 24.5046L6.67985 24.0919C6.73812 24.0334 6.79638 24.0334 6.79638 24.0919C6.76502 24.1238 6.72405 24.1444 6.67985 24.1505H6.61604L5.8031 24.5004L6.1513 24.6761L7.07939 24.2676C7.13765 24.209 7.19592 24.209 7.19592 24.2676C7.16455 24.2995 7.12359 24.3201 7.07939 24.3262H7.02251L6.20957 24.6761L6.6743 24.909L7.66065 24.5004C7.71892 24.4419 7.77719 24.4419 7.77719 24.5004C7.74582 24.5323 7.70485 24.5529 7.66065 24.559H7.60239L6.73118 24.909L7.13765 25.1418L8.18227 24.7333C8.24053 24.6747 8.2988 24.6747 8.2988 24.7333C8.26743 24.7652 8.22647 24.7858 8.18227 24.7919H8.12539L7.25418 25.1418L7.83406 25.4332L8.87868 24.9661C8.93695 24.9076 9.05348 24.9076 8.99521 24.9661C8.96385 24.998 8.92288 25.0186 8.87868 25.0247C8.87098 25.0245 8.86331 25.0259 8.85616 25.0288C8.849 25.0316 8.84251 25.036 8.83706 25.0414C8.83161 25.0469 8.82732 25.0534 8.82446 25.0606C8.8216 25.0678 8.82022 25.0755 8.82041 25.0833L7.89233 25.4918L8.35707 25.7246L9.45995 25.2576C9.57648 25.199 9.63474 25.199 9.63474 25.2576L9.51821 25.3747C9.51051 25.3745 9.50285 25.3759 9.49569 25.3787C9.48854 25.3816 9.48204 25.3859 9.47659 25.3914C9.47114 25.3969 9.46686 25.4034 9.464 25.4106C9.46113 25.4178 9.45976 25.4255 9.45995 25.4332L8.4736 25.8418L9.28654 26.2503L10.4477 25.7832C10.5642 25.7246 10.6225 25.7246 10.6225 25.7832L10.506 25.9003C10.4982 25.9001 10.4906 25.9015 10.4834 25.9044C10.4763 25.9073 10.4698 25.9116 10.4643 25.9171C10.4589 25.9225 10.4546 25.9291 10.4517 25.9362C10.4489 25.9434 10.4475 25.9511 10.4477 25.9589L9.40307 26.3674L9.98295 26.6588L11.2024 26.1917C11.3189 26.1332 11.3772 26.1332 11.3772 26.1917L11.2606 26.3089C11.2529 26.3087 11.2453 26.31 11.2381 26.3129C11.231 26.3158 11.2245 26.3201 11.219 26.3256C11.2136 26.3311 11.2093 26.3376 11.2064 26.3448C11.2035 26.352 11.2022 26.3597 11.2024 26.3674L10.0995 26.7759L10.6225 27.0088H11.2606L12.1887 26.6588C12.3052 26.6003 12.3635 26.6003 12.3635 26.6588L12.247 26.7759C12.2393 26.7757 12.2316 26.7771 12.2245 26.78C12.2173 26.7829 12.2108 26.7872 12.2054 26.7927C12.1999 26.7981 12.1956 26.8047 12.1928 26.8119C12.1899 26.8191 12.1885 26.8268 12.1887 26.8345L11.6088 27.0673H12.4218L12.5383 26.3089L6.03754 23.4505L6.03616 23.4491Z" fill="white"/>
<path d="M35.9845 39.6091V39.5505L35.9263 39.6091H35.9845Z" fill="white"/>
<path d="M48.9846 41.2418L44.8062 39.5505C45.566 40.1223 46.408 40.5746 47.3032 40.8918C47.8817 41.009 48.4047 41.1261 48.9846 41.2418Z" fill="white"/>
<path d="M34.5903 37.9179L36.0997 38.6151L36.3314 37.448C36.3237 37.4478 36.316 37.4492 36.3088 37.4521C36.3017 37.455 36.2952 37.4593 36.2897 37.4647C36.2843 37.4702 36.28 37.4768 36.2771 37.4839C36.2743 37.4911 36.2729 37.4988 36.2731 37.5066L33.2544 38.2651L33.4861 38.3822H33.5443L34.5903 37.9179Z" fill="white"/>
<path d="M33.7789 37.5094L35.9264 36.9837C36.0959 36.9253 36.2799 36.9253 36.4494 36.9837L36.6242 36.1081L31.168 33.834L30.8781 35.5838L32.0392 35.2924C32.2709 35.2339 32.5622 35.2339 32.6191 35.351C32.6774 35.4095 32.6191 35.5267 32.4443 35.5838C32.3861 35.5838 32.3278 35.6424 32.2695 35.6424L30.7602 36.0509V36.1095L30.8767 36.168L30.7602 36.2266L30.7019 36.6351L31.3401 36.4023L33.7789 37.5094Z" fill="white"/>
<path d="M4.06339 20.768L4.23819 20.6508L4.06339 20.5923H4.00513V20.8251L4.06339 20.768Z" fill="white"/>
<path d="M7.60789 18.5511H7.49136L6.85321 18.9597L5.80859 19.6568H6.04027L6.33021 19.5397L7.7813 18.5483L7.60789 18.5511Z" fill="white"/>
<path d="M7.19711 18.551L5.86255 19.4266L6.55619 19.1352L7.42739 18.5524H7.19572L7.19711 18.551Z" fill="white"/>
<path d="M0.23307 25.7832L0.174805 26.0161H0.349601L0.639541 25.9575L0.406479 25.7832H0.23307Z" fill="white"/>
<path d="M0.116455 26.1347V26.2518H1.04454L0.696335 26.0176L0.116455 26.1347Z" fill="white"/>
<path d="M0.231689 25.726L0.34822 25.7846L0.231689 25.6675V25.726Z" fill="white"/>
<path d="M0 26.8916V26.9502H1.91582L1.85756 26.8916H0Z" fill="white"/>
<path d="M2.84399 27.883L3.07567 27.8244L2.84399 27.6501V27.883Z" fill="white"/>
<path d="M0.871208 26.6003H0.0582655L0 26.8332H0.116531L0.871208 26.6003Z" fill="white"/>
<path d="M0.406494 26.8332H1.79377L1.39285 26.5417L0.406494 26.8332Z" fill="white"/>
<path d="M0.116615 26.3088L0.0583496 26.5417L1.0447 26.6002L1.33464 26.4831L1.10297 26.3088H0.116615Z" fill="white"/>
<path d="M4.63776 25.9004L3.25049 25.8418L3.65696 26.0746L4.63776 25.9004Z" fill="white"/>
<path d="M2.26401 24.5591H1.16113L1.45107 24.7348L2.26401 24.5591Z" fill="white"/>
<path d="M1.04595 23.9177H0.581215L0.522949 23.9763L1.10283 23.9177H1.04595Z" fill="white"/>
<path d="M2.96038 24.9675L1.74097 24.9089L2.08917 25.1418L2.96038 24.9675Z" fill="white"/>
<path d="M3.77206 25.4333L2.4375 25.3748L2.84397 25.5504L3.77206 25.4333Z" fill="white"/>
<path d="M1.68272 24.2092H0.579834L0.811509 24.3849L1.68272 24.2092Z" fill="white"/>
<path d="M6.90716 27.0089L8.29443 26.7175H8.18484L7.83663 26.4846L5.68774 26.9503L6.90716 27.0089Z" fill="white"/>
<path d="M5.80421 26.4261L7.13877 26.1347L6.7323 25.959L4.64307 26.3675L5.80421 26.4261Z" fill="white"/>
<path d="M5.62947 26.426L4.12012 26.3674L4.58485 26.6588L5.62947 26.426Z" fill="white"/>
<path d="M5.39774 26.9504L7.71865 26.4833L7.19704 26.1919L4.64307 26.659L4.99127 26.8918L5.39774 26.9504Z" fill="white"/>
<path d="M3.19216 24.9676L4.29504 24.7348L4.00927 24.6177L2.20581 24.9091L3.19216 24.9676Z" fill="white"/>
<path d="M2.72734 25.3176L4.75831 24.9677L4.35323 24.792L2.14746 25.142L2.37914 25.3176H2.72734Z" fill="white"/>
<path d="M2.03228 24.909L3.9481 24.559L3.59851 24.3833L1.50928 24.7333L1.68407 24.909H2.03228Z" fill="white"/>
<path d="M2.43883 24.559L3.54172 24.3833L3.30865 24.2676L1.56763 24.5004L2.43883 24.559Z" fill="white"/>
<path d="M1.3941 24.5005L3.25165 24.2091L2.90206 24.0334L0.871094 24.3834L1.10277 24.5005H1.3941Z" fill="white"/>
<path d="M1.79927 24.2091L2.84389 24.0335L2.61083 23.9177L0.986328 24.1506L1.79927 24.2091Z" fill="white"/>
<path d="M4.40872 26.3089L6.61449 25.9003L6.15253 25.6675L3.71509 26.1346L4.00503 26.3103L4.40872 26.3089Z" fill="white"/>
<path d="M3.9468 25.3746L5.16621 25.1418L4.81801 25.0247L2.96045 25.3161L3.9468 25.3746Z" fill="white"/>
<path d="M3.54025 25.7833L5.62948 25.4333L5.22301 25.2004L2.9021 25.609L3.13377 25.7846L3.54025 25.7833Z" fill="white"/>
<path d="M4.81659 25.8419L6.09288 25.609L5.6878 25.4333L3.77197 25.7833L4.81659 25.8419Z" fill="white"/>
<path d="M0.579834 23.8007L1.96711 23.5678L1.74098 23.4507L0.579834 23.6264V23.8007Z" fill="white"/>
<path d="M0.696289 22.9834V23.1005L0.927964 23.042L0.696289 22.9834Z" fill="white"/>
<path d="M0.986229 23.1006L0.696289 23.1591V23.2763L1.16103 23.1591L0.986229 23.1006Z" fill="white"/>
<path d="M1.21806 23.2163L0.638184 23.2749V23.4506L1.45113 23.3334L1.21806 23.2163Z" fill="white"/>
<path d="M1.45113 23.3335L0.638184 23.4506V23.5677H0.696449L1.6828 23.4506L1.45113 23.3335Z" fill="white"/>
<path d="M3.0188 29.0502L4.75983 29.1087L4.17995 28.7002L3.0188 29.0502Z" fill="white"/>
<path d="M5.57129 31.2086L7.66052 31.3257L6.90585 30.7429L5.57129 31.2086Z" fill="white"/>
<path d="M7.66184 32.6669L7.72011 32.4341L7.25537 32.6098L7.66184 32.6669Z" fill="white"/>
<path d="M19.3274 42.9333L21.1308 43.1661L21.769 42.0577L21.0754 41.4749L19.3274 42.9333Z" fill="white"/>
<path d="M16.0188 38.6177L16.1936 39.3762L18.631 39.6676L16.6569 38.1506L16.0188 38.6177Z" fill="white"/>
<path d="M4.17847 30.0428L6.09429 30.1014L5.45476 29.6343L4.17847 30.0428Z" fill="white"/>
<path d="M2.78564 28.0002V28.233H3.65685L3.13385 27.8831L2.78564 28.0002Z" fill="white"/>
<path d="M2.43742 30.0415L2.37915 30.5672L6.38421 30.7387L6.73241 30.6215L6.20941 30.213L2.43742 30.0415Z" fill="white"/>
<path d="M2.72746 28.2915L2.66919 28.6415L3.77207 28.7L4.12028 28.5829L3.71381 28.2915H2.72746Z" fill="white"/>
<path d="M3.59866 28.7588H2.67057L2.6123 29.0502H2.67057L3.59866 28.7588Z" fill="white"/>
<path d="M2.61222 29.1086L2.55396 29.5172L4.99139 29.6343L5.3396 29.5172L4.87486 29.1672L2.61222 29.1086Z" fill="white"/>
<path d="M2.61099 31.0928L5.16496 31.2099L6.15131 30.8014L2.32104 30.6257V30.8014L2.61099 31.0928Z" fill="white"/>
<path d="M2.66919 31.1499L3.24907 31.7913L7.77574 32.0241L7.89227 31.4413H7.83401L2.66919 31.1499Z" fill="white"/>
<path d="M3.88995 32.4341L6.79212 32.6098L7.72021 32.2012V32.1427L3.36694 31.9084L3.88995 32.4341Z" fill="white"/>
<path d="M10.4461 36.5751C10.3296 36.5751 10.2145 36.6337 10.0979 36.6337C9.81018 36.6822 9.51833 36.7018 9.22672 36.6922C8.7401 36.7153 8.25752 36.5936 7.83944 36.3423L7.78118 36.2837H7.71875L8.82163 37.3922L10.6792 37.5678L10.7957 36.5179L10.4461 36.5751Z" fill="white"/>
<path d="M15.9036 38.1478L16.31 37.915L15.7288 37.4507L15.9036 38.1478Z" fill="white"/>
<path d="M10.0412 38.7335L10.5059 38.7921L10.6225 37.8593L8.99658 37.6836L10.0412 38.7335Z" fill="white"/>
<path d="M16.2505 39.6091L16.4822 40.7176L16.3074 41.009L20.1376 41.5346L20.6024 41.1261L18.9779 39.9591L16.2505 39.6091Z" fill="white"/>
<path d="M10.4475 39.142L10.5058 39.0249L10.2727 38.9663L10.4475 39.142Z" fill="white"/>
<path d="M17.993 46.8999L18.6311 47.017L19.3248 46.1414C19.4413 45.9086 19.6147 45.7329 19.7312 45.5001L16.0771 44.9172L17.993 46.8999Z" fill="white"/>
<path d="M16.1896 41.3005L15.6097 42.2919C15.5514 42.3504 15.5514 42.409 15.4932 42.4676L18.5119 42.8761L19.8464 41.7676L16.1896 41.3005Z" fill="white"/>
<path d="M14.7424 43.5173L15.6705 44.5086L19.9711 45.15C20.261 44.6243 20.6092 44.1001 20.8992 43.5744L20.9574 43.4573L15.3223 42.7002C15.1571 42.9916 14.9628 43.2654 14.7424 43.5173Z" fill="white"/>
<path d="M4.69876 33.247L7.48441 33.4798L7.60094 32.7827L4.00513 32.5498L4.69876 33.247Z" fill="white"/>
<path d="M5.5129 34.0641L7.37046 34.1812V34.0641L7.48699 33.5384L4.87476 33.3669L5.5129 34.0641Z" fill="white"/>
<path d="M6.50069 35.118L7.31363 35.1766V34.651C7.30475 34.5502 7.32498 34.449 7.37189 34.3596L5.68774 34.2424L6.50069 35.118Z" fill="white"/>
<path d="M7.48702 36.1095H7.54528C7.3998 35.8831 7.3196 35.6205 7.31361 35.351L6.67407 35.2925L7.48702 36.1095Z" fill="white"/>
<path d="M4.75841 29.6928L2.49577 29.6343L2.4375 29.9842L3.82477 30.0428L4.75841 29.6928Z" fill="white"/>
<path d="M24.0801 37.975L22.6929 37.7422L23.854 38.3836L24.0801 37.975Z" fill="white"/>
<path d="M18.5146 33.6583L15.4958 33.3083L16.8831 34.184L18.5146 33.6583Z" fill="white"/>
<path d="M22.1714 35.7595L18.6311 35.2339L20.4346 36.3424L22.1714 35.7595Z" fill="white"/>
<path d="M8.18343 27.7088L8.58991 27.6502L8.65233 27.2417L6.84888 27.6502L8.18343 27.7088Z" fill="white"/>
<path d="M8.35827 28.8173L8.41653 28.5258L7.48706 28.4673L8.1807 28.8758L8.35827 28.8173Z" fill="white"/>
<path d="M14.4512 31.9084L14.5094 32.317L15.5541 32.0256L14.4512 31.9084Z" fill="white"/>
<path d="M5.39785 27.1261L5.62952 27.3018L6.73241 27.069H6.67553L5.10791 26.9504L5.39785 27.1261Z" fill="white"/>
<path d="M7.95197 27.7673L6.21094 27.6501L6.79082 28.0001L7.95197 27.7673Z" fill="white"/>
<path d="M30.0635 40.8334H35.3448L35.8096 40.6006V40.4249L33.2542 39.2007L30.0635 40.8334Z" fill="white"/>
<path d="M30.0066 40.2519L32.734 38.9106L30.4713 37.7422L30.0066 40.2519Z" fill="white"/>
<path d="M24.2025 37.7421L24.2607 37.625L24.0291 37.7421H24.2025Z" fill="white"/>
<path d="M23.3325 37.625L24.552 37.158L25.5966 35.3454L24.9584 35.054L20.7786 36.5751L22.2879 37.4508L23.3325 37.625Z" fill="white"/>
<path d="M24.6073 34.8837L23.0397 34.0667L19.7893 35.2337L22.5167 35.6422L24.6073 34.8837Z" fill="white"/>
<path d="M6.55895 27.5932L8.64819 27.1847L8.70645 26.9518L8.64819 26.8932L8.41651 26.7761L7.37189 27.009L5.68774 27.3589L6.09422 27.5918L6.55895 27.5932Z" fill="white"/>
<path d="M15.9551 33.2499L19.2637 32.2L17.9292 31.5586L14.5623 32.4914L14.6205 32.7828L15.2004 33.1328L15.9551 33.2499Z" fill="white"/>
<path d="M13.9296 29.6928L14.1044 29.6342L13.8713 29.5171L13.9296 29.6928Z" fill="white"/>
<path d="M13.9878 29.8086L14.1043 30.3914L15.1489 30.1585L14.2777 29.75L13.9878 29.8086Z" fill="white"/>
<path d="M8.41527 28.4672V28.3501L8.18359 28.4087L8.41527 28.4672Z" fill="white"/>
<path d="M7.89358 28.406L8.47346 28.2889L8.53172 27.7061L6.90723 28.056L7.37196 28.3474L7.89358 28.406Z" fill="white"/>
<path d="M14.3362 31.3841L16.4254 30.8013L15.3225 30.2185L14.1614 30.5685L14.3362 31.3841Z" fill="white"/>
<path d="M16.4836 33.3084L18.8046 33.5413L20.3139 33.1327L20.1974 32.6656L19.5037 32.3157L16.4836 33.3084Z" fill="white"/>
<path d="M19.2109 35.1753L22.693 33.9497L21.2433 33.1926L20.6051 34.4754H20.4886L20.3138 33.3084L17.1799 34.3583L18.3411 35.0554L19.2109 35.1753Z" fill="white"/>
<path d="M17.7029 31.4426L16.6583 30.917L14.3943 31.5584V31.7912L15.8454 31.9083L17.7029 31.4426Z" fill="white"/>
<path d="M15.6123 36.9252L21.9965 41.6477L22.6901 40.4221L15.2058 35.2339L15.6123 36.9252Z" fill="white"/>
<path d="M3.71374 27.3002L3.36554 27.0673L0.34822 24.9675L0.231689 25.4932L2.20439 26.9516H3.01733L2.9008 27.4773L7.89499 31.2112L8.06978 30.3356L3.71374 27.3002Z" fill="white"/>
<path d="M9.4029 26.8918L10.1576 26.7747L9.7511 26.599L9.51943 26.4819L8.88128 26.599H8.64822C8.58996 26.599 8.58996 26.599 8.64822 26.5404L9.34186 26.4233L8.87712 26.1905L8.23898 26.3076H8.06696C8.00869 26.3076 8.00869 26.3076 8.06696 26.249L8.76059 26.1319L8.18071 25.8991L7.60083 26.0162H7.42881C7.37054 26.0162 7.37054 26.0162 7.42881 25.9576L8.12245 25.8405L7.77424 25.6648L7.19436 25.7819H7.02234C6.96407 25.7819 6.96407 25.7819 7.02234 25.7234L7.71597 25.6063L7.19297 25.3734L6.61309 25.4905H6.44246L7.0806 25.3734L6.7324 25.1977L6.15252 25.3148H5.97772L6.61587 25.1977L6.15113 25.022L5.57125 25.1392H5.39784L6.03599 25.022L5.80431 24.7892L5.22443 24.8478H5.05519L5.69333 24.7306L5.28131 24.5633L4.75831 24.6219H4.5849L5.16478 24.5048L4.87484 24.3876L4.4101 24.5048H4.23669L4.81657 24.3876L4.46837 24.212L3.94537 24.2705H3.77334L4.35323 24.212L4.06328 24.0948L3.54028 24.145H3.36687L3.94675 24.0865L3.59855 23.9108H3.13381L3.65681 23.8522L3.48202 23.7351L3.01728 23.7937H2.84387L3.36687 23.7351L3.07693 23.618L2.6122 23.6765H2.49567L3.01867 23.618L2.78699 23.5009L2.32226 23.5594H2.20573L2.72873 23.5009L2.43879 23.3837L1.97405 23.4423H1.85752L2.38052 23.3837L2.14191 23.2764L1.67718 23.3349H1.56758L2.09058 23.2764L1.85891 23.1593L1.45244 23.2178H1.39278L1.85752 23.1593L1.74099 22.9264L1.33452 22.985H1.27764L1.74238 22.9264L1.5107 22.8093L1.10423 22.8679H1.04458L1.50932 22.8093L1.33452 22.7507H0.754639V22.8679L2.6122 23.8006L8.47343 26.6548L8.93816 26.8876L8.99643 26.9462L9.4029 26.8876C9.34463 26.9504 9.34463 26.8918 9.4029 26.8918Z" fill="white"/>
<path d="M35.9262 39.6092L36.1579 38.6179L34.5903 37.9207L33.4874 38.3292H33.4291C33.291 38.3385 33.1526 38.3186 33.0226 38.2707C32.8488 38.2121 32.7905 38.1536 32.8478 38.095L34.0673 37.6279L33.7773 37.5108L31.2802 36.3438L30.6421 36.5766L30.4673 37.4522L35.8652 40.0777L35.9234 39.6692C35.8679 39.6678 35.8679 39.6092 35.9262 39.6092Z" fill="white"/>
<path d="M0.812988 22.6335L0.987785 22.5749L0.812988 22.5164V22.6335Z" fill="white"/>
<path d="M1.21938 22.6921L0.986313 22.575L0.754639 22.6335V22.7506L1.21938 22.6921Z" fill="white"/>
<path d="M9.63452 26.9504H10.5057L10.2727 26.8333L9.63452 26.9504Z" fill="white"/>
<path d="M30.7614 36.1665L30.7031 36.2251L30.8197 36.1665H30.7614Z" fill="white"/>
<path d="M17.9915 30.3329L17.6433 30.45L17.1785 30.5672H16.8886C16.7721 30.5672 16.7721 30.5086 16.8303 30.5086L17.4102 30.3915L17.7584 30.3329L17.2937 30.1572L17.0037 30.0401L16.539 29.8073L16.3073 29.7487L15.7843 29.8658H15.4944C15.4361 29.8658 15.3778 29.8073 15.4944 29.8073L16.1325 29.6901L16.4225 29.6316L15.8995 29.3987L15.6678 29.2816L15.6095 29.2231L15.3778 29.2816L14.8548 29.3987H14.6232C14.5649 29.3987 14.5649 29.3402 14.6232 29.3402L15.2613 29.2231L15.493 29.1645L14.5066 28.7002L14.3318 28.7588L13.8088 28.8759L13.9254 29.343L20.2513 32.4341L20.1945 31.9071H19.8463C19.7297 31.9071 19.7297 31.8485 19.788 31.8485L20.1945 31.7314L20.1362 31.2643L19.498 30.9729L19.2664 30.9143L18.3952 31.1472H18.1135C17.997 31.1472 17.997 31.0886 18.0553 31.0886L18.5783 30.9129L18.9848 30.7958L17.9915 30.3329Z" fill="white"/>
<path d="M24.4341 33.3098L23.7404 33.5427L23.5088 33.6012H23.1605C23.044 33.5427 22.9858 33.5427 23.1023 33.4841L23.4505 33.367L24.1441 33.1913L24.0276 33.1327L23.5629 32.957L22.3434 32.4314L21.7053 32.6071L21.4736 32.6656L21.2988 33.0742L25.6521 35.2325L26.1751 34.2998L25.3621 34.4169H25.3039C25.2034 34.4319 25.1008 34.4112 25.0139 34.3583C24.8974 34.2998 24.8391 34.2998 24.9557 34.2412L25.2456 34.1241L26.0586 33.8912L24.4341 33.3098Z" fill="white"/>
<path d="M21.8232 32.0842L21.6484 32.3756L22.1132 32.2L21.8232 32.0842Z" fill="white"/>
<path d="M13.6979 28.7586L14.2778 28.6415L14.103 28.5829L13.6396 28.3501L13.6979 28.7586Z" fill="white"/>
<path d="M5.16623 27.1845L4.75976 26.9516L0.46476 24.2676L0.406494 24.7347L3.88855 27.0102L4.23676 27.243L8.18355 29.8685L8.30008 29.11L5.16623 27.1845Z" fill="white"/>
<path d="M14.7424 33.134L15.0324 34.4168L23.0411 39.7834L23.6792 38.675L14.7424 33.134Z" fill="white"/>
<path d="M15.6705 49.1755L15.2058 49.1169L15.3806 49.2926C15.4389 49.2926 15.4389 49.2926 15.4971 49.2341C15.554 49.2341 15.6123 49.1755 15.6705 49.1755Z" fill="white"/>
<path d="M15.2058 46.2584H15.031L12.5935 45.9085L14.7993 48.5911L16.4821 48.824C16.8903 48.6055 17.2788 48.3517 17.6432 48.0654L17.9914 47.7155L14.3928 43.9258L14.2763 44.0429C13.7163 44.487 13.0163 44.7146 12.3036 44.6843C12.0698 44.6929 11.8359 44.6723 11.6072 44.6229L12.3008 45.44L15.0282 45.79C15.2599 45.8485 15.4347 45.9071 15.4347 46.0228C15.4374 46.2013 15.3223 46.2013 15.2058 46.2584Z" fill="white"/>
<path d="M2.14745 31.5584C2.20572 31.5584 2.20572 31.617 2.14745 31.5584C2.20572 31.617 2.14745 31.617 2.14745 31.617L2.03092 32.1426H2.6108C2.67431 32.1395 2.73669 32.1604 2.7856 32.2012C2.75423 32.2331 2.71327 32.2537 2.66907 32.2598H2.08919L1.97266 32.9011L2.03092 32.9597L3.41819 33.0183C3.43042 33.0019 3.44747 32.9898 3.46693 32.9837C3.48638 32.9776 3.50726 32.9777 3.52659 32.9842C3.54593 32.9907 3.56274 33.0031 3.57466 33.0198C3.58658 33.0364 3.59299 33.0563 3.59299 33.0768C3.59299 33.0973 3.58658 33.1173 3.57466 33.1339C3.56274 33.1505 3.54593 33.1629 3.52659 33.1694C3.50726 33.1759 3.48638 33.1761 3.46693 33.17C3.44747 33.1639 3.43042 33.1518 3.41819 33.1354H3.35993L2.14052 33.0768L2.66629 33.6596L4.05357 33.7768C4.0658 33.7604 4.08284 33.7483 4.1023 33.7422C4.12175 33.7361 4.14263 33.7363 4.16196 33.7427C4.1813 33.7492 4.19812 33.7616 4.21003 33.7782C4.22195 33.7949 4.22836 33.8148 4.22836 33.8353C4.22836 33.8558 4.22195 33.8758 4.21003 33.8924C4.19812 33.909 4.1813 33.9214 4.16196 33.9279C4.14263 33.9344 4.12175 33.9346 4.1023 33.9285C4.08284 33.9224 4.0658 33.9103 4.05357 33.8939H3.94536L2.66907 33.8353L3.3627 34.7109L4.93032 34.8281C5.04685 34.8281 5.162 34.8866 5.10512 34.9452C5.10512 35.0037 5.04685 35.0037 4.93032 35.0037H4.81657L3.42929 34.8866L4.12293 35.5838L5.80569 35.7009C5.92222 35.7009 6.03737 35.7595 6.03737 35.818C6.03737 35.8766 5.9791 35.8766 5.86257 35.8766H5.74465L4.2353 35.7595L5.10651 36.8679L6.90996 36.985C7.02649 36.985 7.14164 37.0436 7.14164 37.1022C7.14164 37.1607 7.08337 37.1607 6.96684 37.1607H6.84753L5.27992 37.0436L6.09286 38.0349L8.00868 38.2106C8.18348 38.2106 8.29862 38.2692 8.29862 38.3277C8.29862 38.3863 8.24036 38.3863 8.12383 38.3863H8.00868L6.32592 38.2106L7.48707 39.6049L9.5763 39.8378C9.7511 39.8378 9.86624 39.8963 9.86624 40.0135C9.86624 40.072 9.80798 40.072 9.69144 40.1306H9.5763L7.71874 39.9549L8.70509 41.1805H8.87989C9.37936 41.1104 9.86704 40.9725 10.3296 40.7706L10.4461 39.7792L2.32086 31.1499L2.14745 31.5584Z" fill="white"/>
<path d="M0.812889 24.1505L2.55392 23.9176L2.37912 23.8005L2.3264 23.7419L1.51346 23.8591L0.522949 24.0334V24.1505H0.812889Z" fill="white"/>
<path d="M2.2626 23.7421L2.03092 23.625L0.579834 23.8578H1.21798L2.2626 23.7421Z" fill="white"/>
<path d="M1.56763 38.1506V38.2092H1.68416L1.56763 38.1506Z" fill="white"/>
<path d="M10.9692 49.5254C11.5274 49.5975 12.0893 49.6366 12.652 49.6425H12.8837L12.7727 49.4668L10.9692 49.5254Z" fill="white"/>
<path d="M10.1576 46.55L9.69287 49.0598L12.362 49.0012L10.4475 46.55H10.1576Z" fill="white"/>
<path d="M3.0188 40.2505C3.98003 40.8431 5.08202 41.1652 6.20953 41.1833L5.62965 40.4861L3.0188 40.2505Z" fill="white"/>
<path d="M1.45109 35.9338C1.45109 36.2838 1.39282 36.5752 1.39282 36.8095V36.9851L2.96044 37.218L2.03236 36.051L1.45109 35.9338Z" fill="white"/>
<path d="M1.39282 37.2166C1.40318 37.473 1.44227 37.7274 1.50935 37.9751L2.03236 38.2665L4.06332 38.4993L3.19628 37.3922L1.39282 37.2166Z" fill="white"/>
<path d="M1.62451 38.4421C1.79062 39.0376 2.13499 39.5672 2.61086 39.9591L5.39651 40.2505L4.23536 38.7921L1.62451 38.4421Z" fill="white"/>
<path d="M1.45093 35.7596L1.91566 35.8182L1.56746 35.3511C1.49427 35.4749 1.45414 35.6156 1.45093 35.7596Z" fill="white"/>
<path d="M1.74104 33.9497L1.62451 34.6469L2.49572 34.8225L1.74104 33.9497Z" fill="white"/>
<path d="M14.5151 48.8826L13.354 48.8241H13.2375C13.1089 48.7673 12.9911 48.6885 12.8893 48.5912C12.7727 48.4741 12.7145 48.3584 12.831 48.3584L14.1073 48.4755L12.0763 46.1428L11.0317 45.9672H10.9082C10.8042 45.9219 10.7067 45.8628 10.6183 45.7915C10.5018 45.6744 10.4435 45.6158 10.56 45.6158L11.7794 45.7329L10.6766 44.4502C10.6183 44.4502 10.56 44.3916 10.5018 44.3916L10.2146 45.9086L13.2333 49.6425C13.7982 49.5975 14.3601 49.5198 14.9161 49.4097L14.5151 48.8826Z" fill="white"/>
<path d="M7.94908 41.1806L7.25545 40.3635L6.2691 40.2464H6.21083C6.15257 40.1878 6.03603 40.1878 5.97916 40.0707C5.86263 40.0121 5.86263 39.9536 5.97916 39.9536L7.08204 40.1293L5.80436 38.6708L4.87627 38.4951H4.81801C4.73083 38.4804 4.65009 38.4396 4.58633 38.378C4.4698 38.3194 4.4698 38.2609 4.58633 38.2609L5.63095 38.4366L4.75836 37.3922L3.83027 37.2166H3.77339C3.68621 37.2018 3.60547 37.161 3.54172 37.0994C3.48345 37.0409 3.42519 36.9823 3.54172 36.9823L4.52807 37.158L3.54172 35.991L2.67051 35.8153H2.61224C2.52506 35.8005 2.44432 35.7597 2.38057 35.6982C2.3223 35.6396 2.3223 35.581 2.38057 35.6396L3.37108 35.8167L2.61641 34.9996L1.80346 34.8239H1.74242C1.68416 34.8239 1.68416 34.7654 1.62589 34.7654C1.62589 34.8825 1.56763 34.9982 1.56763 35.1153L6.56181 41.2405H7.08481C7.37417 41.2492 7.66366 41.2291 7.94908 41.1806Z" fill="white"/>
<path d="M67.2092 23.5666C68.2178 22.9341 69.3876 22.61 70.5761 22.6338C71.0648 22.638 71.5515 22.697 72.0272 22.8095C72.5412 22.9167 73.0323 23.114 73.4783 23.3923C74.5922 24.0482 75.4361 25.0827 75.8575 26.3092C76.3764 25.203 77.2027 24.2713 78.2366 23.6265C79.3207 22.9713 80.5711 22.6472 81.8352 22.6937C82.7391 22.63 83.6458 22.7698 84.4892 23.1029C85.3325 23.436 86.0913 23.954 86.7101 24.6193C87.854 26.0754 88.4315 27.9003 88.3346 29.7531V40.2536H85.8375V30.7416C85.8962 29.2215 85.5561 27.7126 84.8512 26.3663C84.4814 25.8077 83.9675 25.3606 83.3644 25.073C82.7613 24.7854 82.0917 24.6681 81.4274 24.7336C80.6393 24.6996 79.8567 24.8812 79.1633 25.2593C78.5659 25.636 78.0521 26.1325 77.654 26.7177C77.2554 27.3395 76.9794 28.0325 76.8411 28.759C76.6751 29.525 76.5973 30.3077 76.6094 31.0916V40.2494H74.1123V30.2104C74.1164 29.4484 74.0579 28.6873 73.9375 27.9349C73.8416 27.3151 73.6247 26.7204 73.2993 26.1851C72.9879 25.7007 72.545 25.3161 72.023 25.0766C71.3815 24.8007 70.6899 24.6616 69.9921 24.6681C69.3683 24.6692 68.7525 24.8087 68.1886 25.0766C67.5753 25.3788 67.0241 25.7946 66.5641 26.3022C66.0401 26.9162 65.6451 27.6305 65.403 28.402C65.0893 29.3621 64.9324 30.3669 64.9382 31.3774V40.2438H62.4412V26.8334C62.4412 26.3663 62.4412 25.7835 62.3829 25.0208C62.3782 24.3584 62.3393 23.6966 62.2664 23.0381H64.6455C64.7038 23.5052 64.7038 24.0295 64.7621 24.5551C64.7621 25.138 64.8203 25.605 64.8203 25.9494H64.8786C65.4208 24.9535 66.2277 24.1285 67.2092 23.5666Z" fill="#FFCF00"/>
<path d="M101.394 29.1089C101.433 28.5045 101.35 27.8986 101.151 27.3271C100.951 26.7555 100.64 26.2301 100.235 25.7821C99.2723 24.9935 98.05 24.5978 96.8107 24.6736C95.8378 24.6622 94.872 24.8407 93.9668 25.1993C93.1417 25.5319 92.3916 26.0279 91.7611 26.6577L90.3738 25.025C91.1749 24.2582 92.1226 23.6629 93.1594 23.2751C94.4191 22.7932 95.7585 22.5567 97.1062 22.578C97.9939 22.5618 98.8776 22.7 99.7184 22.9865C100.502 23.214 101.228 23.6072 101.847 24.1399C102.467 24.6726 102.966 25.3323 103.311 26.0749C103.679 26.9404 103.858 27.8752 103.834 28.8161V36.3453C103.834 36.9867 103.834 37.6866 103.893 38.3865C103.93 38.9952 104.007 39.6008 104.124 40.1991H101.919C101.86 39.7906 101.802 39.3235 101.744 38.8578C101.695 38.3733 101.676 37.8863 101.686 37.3994H101.627C100.967 38.4522 100.047 39.3164 98.9582 39.9091C97.8585 40.4518 96.6422 40.7124 95.4179 40.6676C94.7318 40.6525 94.0499 40.5547 93.3869 40.3762C92.7001 40.2056 92.0505 39.9087 91.4711 39.5006C90.8728 39.0714 90.3771 38.5136 90.02 37.8679C89.5947 37.1193 89.3929 36.2635 89.4388 35.4027C89.3814 34.268 89.7314 33.1502 90.4251 32.253C91.1614 31.4619 92.0771 30.8616 93.0942 30.5032C94.331 30.0775 95.6195 29.8223 96.9245 29.7447C98.3756 29.6276 99.8845 29.569 101.451 29.569V29.1019L101.394 29.1089ZM100.701 31.6186C99.656 31.6186 98.6697 31.6772 97.6251 31.7357C96.6762 31.7759 95.7381 31.9529 94.8394 32.2614C94.0766 32.4877 93.3664 32.8645 92.7502 33.3699C92.487 33.6149 92.2785 33.9131 92.1384 34.245C91.9982 34.5769 91.9297 34.9349 91.9372 35.2954C91.9145 35.8234 92.0348 36.3477 92.2854 36.8124C92.4995 37.2214 92.8203 37.5641 93.2135 37.8037C93.6 38.0623 94.0339 38.241 94.4898 38.3294C94.9643 38.4487 95.4518 38.5077 95.9409 38.5051C96.7385 38.5141 97.5292 38.355 98.2618 38.038C98.9193 37.7531 99.5118 37.3361 100.003 36.8124C100.472 36.2876 100.828 35.6703 101.047 34.9998C101.28 34.3044 101.398 33.5752 101.396 32.8414V31.5587H100.702L100.701 31.6186Z" fill="#FFCF00"/>
<path d="M107.663 23.0422C107.722 23.5093 107.722 24.0335 107.78 24.5592C107.78 25.142 107.838 25.6091 107.838 25.9535H107.896C108.42 24.9102 109.251 24.0547 110.276 23.5037C111.332 22.8844 112.535 22.5622 113.758 22.5709C114.662 22.5072 115.568 22.6469 116.412 22.9801C117.255 23.3132 118.014 23.8312 118.633 24.4965C119.776 25.9526 120.354 27.7775 120.257 29.6303V40.2465H117.76V30.7415C117.781 29.9185 117.703 29.0961 117.528 28.2917C117.384 27.6309 117.129 26.9996 116.774 26.4248C116.417 25.8844 115.913 25.4588 115.322 25.1992C114.612 24.8758 113.838 24.7162 113.058 24.7321C112.398 24.7269 111.744 24.8663 111.143 25.1406C110.511 25.4414 109.941 25.8569 109.46 26.3662C108.936 26.9802 108.541 27.6945 108.299 28.466C107.985 29.4261 107.828 30.4309 107.834 31.4415V40.2492H105.337V26.8333C105.337 26.3662 105.337 25.7834 105.279 25.0207C105.22 24.258 105.22 23.6264 105.162 23.038L107.663 23.0422Z" fill="#FFCF00"/>
<path d="M125.365 38.4994C125.367 39.0129 125.181 39.5092 124.842 39.8937C124.661 40.0963 124.436 40.2542 124.184 40.3553C123.932 40.4564 123.661 40.4978 123.391 40.4765C123.121 40.4921 122.852 40.4481 122.601 40.3473C122.35 40.2466 122.124 40.0917 121.94 39.8937C121.603 39.5058 121.417 39.0085 121.417 38.4938C121.417 37.979 121.603 37.4817 121.94 37.0939C122.121 36.8913 122.346 36.7333 122.598 36.6322C122.849 36.5312 123.121 36.4897 123.391 36.5111C123.66 36.4954 123.93 36.5395 124.181 36.6402C124.432 36.7409 124.657 36.8958 124.842 37.0939C125.183 37.4812 125.37 37.982 125.365 38.4994Z" fill="#FFCF00"/>
<path d="M128.907 23.0422C128.965 23.5093 128.965 24.0335 129.023 24.5592C129.023 25.142 129.082 25.6091 129.082 25.9535H129.14C129.663 24.9102 130.494 24.0547 131.519 23.5037C132.575 22.8844 133.778 22.5622 135.001 22.5709C135.905 22.5072 136.812 22.6469 137.655 22.9801C138.498 23.3132 139.257 23.8312 139.876 24.4965C141.02 25.9526 141.597 27.7775 141.5 29.6303V40.2465H139.003V30.7415C139.024 29.9185 138.946 29.0961 138.772 28.2917C138.627 27.6309 138.372 26.9996 138.017 26.4248C137.661 25.8844 137.157 25.4588 136.566 25.1992C135.857 24.8697 135.082 24.7098 134.302 24.7321C133.641 24.7269 132.988 24.8663 132.386 25.1406C131.755 25.4414 131.184 25.8569 130.703 26.3662C130.179 26.9802 129.784 27.6945 129.542 28.466C129.228 29.4261 129.072 30.4309 129.077 31.4415V40.2492H126.58V26.8333C126.58 26.3662 126.58 25.7834 126.522 25.0207C126.517 24.3582 126.478 23.6964 126.406 23.038L128.907 23.0422Z" fill="#FFCF00"/>
<path d="M145.272 43.6876C146.03 44.6213 146.98 45.3779 148.058 45.9046C149.121 46.4411 150.282 46.754 151.47 46.8242C152.657 46.8945 153.847 46.7206 154.965 46.3131C155.775 46.0156 156.495 45.5133 157.055 44.8547C157.598 44.2318 157.995 43.4941 158.216 42.6963C158.453 41.8417 158.57 40.958 158.564 40.0708V36.8639H158.447C157.784 37.957 156.815 38.8298 155.662 39.3737C154.524 39.9381 153.274 40.2374 152.005 40.2493C150.758 40.2554 149.519 40.0382 148.348 39.6079C147.311 39.1925 146.364 38.5767 145.562 37.7953C144.766 37.0049 144.151 36.0495 143.759 34.9956C142.907 32.7606 142.907 30.2883 143.759 28.0534C144.165 27.0067 144.778 26.0541 145.562 25.2536C146.343 24.4186 147.293 23.7619 148.348 23.3281C149.508 22.8524 150.751 22.6162 152.004 22.6337C153.272 22.6456 154.522 22.9449 155.66 23.5093C156.814 24.0532 157.782 24.926 158.446 26.0191H158.504V23.0422H161.001V40.075C161.001 41.0808 160.865 42.0819 160.595 43.0504C160.338 44.1209 159.842 45.1184 159.144 45.9673C158.377 46.9153 157.404 47.6737 156.3 48.1842C154.837 48.8205 153.25 49.1197 151.657 49.0599C150.099 49.0716 148.557 48.7538 147.13 48.1271C145.745 47.5333 144.485 46.6818 143.415 45.6173L145.272 43.6876ZM145.737 31.4373C145.74 32.3138 145.897 33.1829 146.202 34.0042C146.478 34.8031 146.912 35.5374 147.478 36.1626C148.028 36.8071 148.725 37.3077 149.509 37.621C150.374 37.9795 151.301 38.1584 152.237 38.1467C153.128 38.1437 154.011 37.9856 154.849 37.6796C155.636 37.3945 156.35 36.9363 156.938 36.3383C157.53 35.7341 158.001 35.0212 158.325 34.2385C158.662 33.3655 158.82 32.4331 158.79 31.4973C158.787 30.6208 158.63 29.7517 158.325 28.9304C157.988 28.1373 157.518 27.4075 156.938 26.772C156.34 26.1569 155.631 25.6619 154.849 25.3136C154.023 24.9606 153.134 24.7817 152.237 24.7879C151.301 24.7706 150.372 24.9496 149.509 25.3136C148.744 25.6627 148.055 26.158 147.478 26.772C146.932 27.412 146.5 28.1423 146.202 28.9304C145.887 29.7292 145.729 30.5821 145.737 31.4415V31.4373Z" fill="#FFCF00"/>
</g>
<defs>
<clipPath id="clip0">
<rect width="161" height="63" fill="white"/>
</clipPath>
</defs>
</svg>
