<svg width="15" height="15" viewBox="0 0 15 15" fill="none" xmlns="http://www.w3.org/2000/svg">
<g id="shopping-cart-black-shape">
<g id="Group">
<g id="Group_2">
<path id="Vector" d="M11.5383 12.6924C11.5383 13.0111 11.6513 13.2829 11.8765 13.5081C12.1017 13.7335 12.3738 13.8463 12.6925 13.8463C13.0108 13.8463 13.2829 13.7335 13.5081 13.5081C13.7335 13.2829 13.8462 13.0111 13.8462 12.6924C13.8462 12.3738 13.7336 12.1019 13.5081 11.8765C13.2829 11.6514 13.0108 11.5386 12.6925 11.5386C12.3738 11.5386 12.1017 11.6514 11.8765 11.8765C11.6513 12.1019 11.5383 12.3738 11.5383 12.6924Z" fill="white"/>
<path id="Vector_2" d="M14.8287 2.47885C14.7144 2.36465 14.5793 2.30753 14.423 2.30753H3.59677C3.59068 2.26551 3.57717 2.18894 3.55614 2.07777C3.53511 1.96654 3.51863 1.87794 3.5066 1.81177C3.49451 1.74587 3.47209 1.66618 3.43897 1.57304C3.40591 1.47984 3.36686 1.40614 3.3218 1.35218C3.27681 1.29794 3.21673 1.2515 3.14158 1.21231C3.0665 1.17338 2.98081 1.15381 2.8847 1.15381H0.577035C0.420683 1.15381 0.285486 1.21102 0.171317 1.32506C0.0571162 1.43923 0 1.57452 0 1.73075C0 1.88697 0.0571162 2.0222 0.171317 2.13637C0.285581 2.25057 0.42081 2.30763 0.577035 2.30763H2.41577L4.01124 9.72661C3.9993 9.7506 3.9377 9.86468 3.82647 10.0691C3.7153 10.2736 3.62667 10.4523 3.56062 10.6055C3.49454 10.7589 3.46148 10.8775 3.46148 10.9616C3.46148 11.1178 3.5186 11.2531 3.63274 11.3674C3.74706 11.4813 3.88223 11.5386 4.03849 11.5386H4.61539H12.6923H13.2689C13.4251 11.5386 13.5604 11.4813 13.6745 11.3674C13.7888 11.2531 13.8459 11.1179 13.8459 10.9616C13.8459 10.8053 13.7888 10.6701 13.6745 10.556C13.5604 10.4419 13.4252 10.3846 13.2689 10.3846H4.97584C5.12013 10.0961 5.19224 9.90399 5.19224 9.80781C5.19224 9.74754 5.18473 9.68139 5.16966 9.60944C5.1546 9.53748 5.13661 9.45773 5.11558 9.37046C5.09452 9.28357 5.08107 9.21894 5.07507 9.17682L14.4864 8.07709C14.6364 8.05893 14.7597 7.99456 14.8559 7.88323C14.952 7.77215 15 7.64447 15 7.50015V2.88466C14.9999 2.72844 14.943 2.59321 14.8287 2.47885Z" fill="white"/>
<path id="Vector_3" d="M3.46143 12.6924C3.46143 13.0111 3.57405 13.2829 3.79945 13.5081C4.02492 13.7335 4.29673 13.8463 4.61534 13.8463C4.93375 13.8463 5.20573 13.7335 5.43104 13.5081C5.65644 13.2829 5.76919 13.0111 5.76919 12.6924C5.76919 12.3738 5.65653 12.1019 5.43104 11.8765C5.2057 11.6514 4.93375 11.5386 4.61534 11.5386C4.29676 11.5386 4.02479 11.6514 3.79945 11.8765C3.57417 12.1019 3.46143 12.3738 3.46143 12.6924Z" fill="white"/>
</g>
</g>
</g>
</svg>
